<?xml version="1.0" standalone="no"?>
<!DOCTYPE svg PUBLIC "-//W3C//DTD SVG 20010904//EN"
 "http://www.w3.org/TR/2001/REC-SVG-20010904/DTD/svg10.dtd">
<svg version="1.0" xmlns="http://www.w3.org/2000/svg"
 width="591.000000pt" height="591.000000pt" viewBox="0 0 591.000000 591.000000"
 preserveAspectRatio="xMidYMid meet">
<metadata>
Created by potrace 1.14, written by Peter Selinger 2001-2017
</metadata>
<g transform="translate(0.000000,591.000000) scale(0.100000,-0.100000)"
fill="#000000" stroke="none">
<path d="M2055 4652 c-115 -12 -242 -63 -320 -127 -34 -28 -1162 -1153 -1190
-1187 -52 -64 -98 -167 -121 -273 -8 -32 -7 -166 1 -215 9 -62 51 -165 92
-227 46 -71 1185 -1209 1257 -1257 197 -130 453 -134 658 -10 77 47 1222 1189
1275 1271 129 202 129 465 0 665 -19 29 -113 132 -210 229 l-176 176 -125
-126 c-69 -70 -126 -130 -126 -134 0 -5 72 -80 160 -169 88 -88 170 -179 182
-202 30 -58 32 -134 5 -198 -18 -45 -101 -132 -592 -623 -362 -362 -586 -578
-611 -590 -55 -27 -155 -26 -211 3 -26 13 -251 231 -608 589 -447 447 -572
577 -590 615 -28 61 -27 145 3 204 12 24 241 261 589 608 440 441 579 574 616
591 59 28 145 27 203 -3 22 -11 112 -93 201 -181 88 -89 164 -161 169 -161 10
0 254 242 254 252 0 9 -303 311 -353 352 -111 90 -291 143 -432 128z"/>
<path d="M3712 4648 c-81 -11 -178 -48 -247 -94 -52 -34 -1155 -1127 -1229
-1217 -159 -194 -172 -492 -32 -711 32 -50 367 -396 383 -396 10 0 253 243
253 253 0 4 -72 79 -161 168 -183 183 -209 224 -205 318 2 33 11 73 24 98 30
57 1137 1165 1195 1195 57 29 156 29 212 0 55 -27 1169 -1142 1198 -1197 29
-56 29 -155 -1 -212 -30 -58 -1136 -1164 -1194 -1195 -59 -30 -156 -30 -215 0
-24 13 -116 95 -207 186 l-164 164 -126 -127 c-69 -69 -126 -130 -126 -134 0
-16 346 -351 396 -383 221 -141 512 -129 708 31 62 50 1138 1124 1189 1187
161 197 173 502 27 718 -34 49 -1141 1166 -1222 1232 -110 90 -296 137 -456
116z"/>
</g>
</svg>
