<svg width="800" height="400" viewBox="0 0 800 400" xmlns="http://www.w3.org/2000/svg"><rect x="0" y="0" width="800" height="400" fill="#fff"/><rect x="0" y="135" width="800" height="130" fill="#f9fafb"/><path fill="#111827" d="M39.8 212.1L34.3 212.1L34.3 185.9L51.6 185.9L51.6 190.5L39.8 190.5L39.8 196.7L50.5 196.7L50.5 201.3L39.8 201.3L39.8 212.1ZM59.4 212.1L54.0 212.1L54.0 192.4L59.3 192.4L59.3 195.9L59.5 195.9Q60.0 194.0 61.3 193.1Q62.5 192.2 64.2 192.2L64.2 192.2Q64.6 192.2 65.1 192.2Q65.6 192.3 65.9 192.4L65.9 192.4L65.9 197.2Q65.5 197.1 64.9 197.0Q64.2 196.9 63.6 196.9L63.6 196.9Q62.4 196.9 61.5 197.4Q60.5 197.9 60.0 198.9Q59.4 199.8 59.4 201.0L59.4 201.0L59.4 212.1ZM72.9 212.5L72.9 212.5Q71.0 212.5 69.5 211.8Q68.0 211.1 67.2 209.8Q66.3 208.5 66.3 206.6L66.3 206.6Q66.3 205.0 66.9 203.8Q67.5 202.7 68.6 202.1Q69.6 201.4 70.9 201.0Q72.3 200.7 73.7 200.6L73.7 200.6Q75.4 200.4 76.5 200.2Q77.5 200.1 78.0 199.7Q78.5 199.4 78.5 198.8L78.5 198.8L78.5 198.7Q78.5 197.5 77.7 196.8Q77.0 196.2 75.6 196.2L75.6 196.2Q74.1 196.2 73.2 196.8Q72.3 197.5 72.1 198.4L72.1 198.4L67.0 198.0Q67.4 196.2 68.5 194.9Q69.7 193.6 71.4 192.9Q73.2 192.2 75.6 192.2L75.6 192.2Q77.2 192.2 78.7 192.6Q80.2 193.0 81.4 193.8Q82.6 194.6 83.2 195.8Q83.9 197.1 83.9 198.8L83.9 198.8L83.9 212.1L78.8 212.1L78.8 209.4L78.6 209.4Q78.1 210.3 77.3 211.0Q76.5 211.7 75.4 212.1Q74.3 212.5 72.9 212.5ZM74.4 208.7L74.4 208.7Q75.6 208.7 76.5 208.2Q77.5 207.7 78.0 206.9Q78.5 206.1 78.5 205.1L78.5 205.1L78.5 203.0Q78.3 203.1 77.8 203.3Q77.4 203.4 76.8 203.5Q76.3 203.6 75.7 203.7Q75.2 203.8 74.7 203.9L74.7 203.9Q73.8 204.0 73.1 204.3Q72.3 204.6 71.9 205.1Q71.5 205.7 71.5 206.4L71.5 206.4Q71.5 207.5 72.4 208.1Q73.2 208.7 74.4 208.7ZM92.7 200.7L92.7 200.7L92.7 212.1L87.3 212.1L87.3 192.4L92.4 192.4L92.4 195.9L92.7 195.9Q93.3 194.2 94.9 193.2Q96.4 192.2 98.6 192.2L98.6 192.2Q100.6 192.2 102.1 193.1Q103.7 194.0 104.5 195.6Q105.4 197.3 105.4 199.6L105.4 199.6L105.4 212.1L99.9 212.1L99.9 200.6Q99.9 198.7 99.0 197.7Q98.1 196.7 96.4 196.7L96.4 196.7Q95.3 196.7 94.5 197.2Q93.6 197.7 93.2 198.6Q92.7 199.5 92.7 200.7ZM117.6 212.5L117.6 212.5Q114.6 212.5 112.4 211.2Q110.3 209.9 109.1 207.6Q107.9 205.3 107.9 202.3L107.9 202.3Q107.9 199.3 109.1 197.0Q110.3 194.8 112.4 193.5Q114.6 192.2 117.6 192.2L117.6 192.2Q120.2 192.2 122.1 193.1Q124.0 194.1 125.1 195.7Q126.3 197.4 126.4 199.7L126.4 199.7L121.2 199.7Q121.0 198.2 120.1 197.3Q119.2 196.4 117.7 196.4L117.7 196.4Q116.4 196.4 115.5 197.1Q114.5 197.8 114.0 199.1Q113.5 200.4 113.5 202.3L113.5 202.3Q113.5 204.1 114.0 205.5Q114.5 206.8 115.5 207.5Q116.4 208.2 117.7 208.2L117.7 208.2Q118.6 208.2 119.4 207.8Q120.1 207.4 120.6 206.7Q121.1 205.9 121.2 204.9L121.2 204.9L126.4 204.9Q126.2 207.1 125.2 208.8Q124.1 210.5 122.1 211.5Q120.2 212.5 117.6 212.5ZM134.4 212.1L129.0 212.1L129.0 192.4L134.4 192.4L134.4 212.1ZM131.7 189.9L131.7 189.9Q130.5 189.9 129.6 189.1Q128.8 188.3 128.8 187.2L128.8 187.2Q128.8 186.0 129.6 185.2Q130.5 184.4 131.7 184.4L131.7 184.4Q132.9 184.4 133.8 185.2Q134.7 186.0 134.7 187.2L134.7 187.2Q134.7 188.3 133.8 189.1Q132.9 189.9 131.7 189.9ZM154.2 198.0L154.2 198.0L149.2 198.4Q149.1 197.7 148.7 197.2Q148.3 196.7 147.6 196.4Q146.9 196.1 145.9 196.1L145.9 196.1Q144.7 196.1 143.8 196.6Q142.9 197.1 142.9 198.0L142.9 198.0Q142.9 198.7 143.5 199.2Q144.1 199.7 145.4 200.0L145.4 200.0L149.0 200.7Q151.8 201.3 153.3 202.6Q154.7 203.9 154.7 206.0L154.7 206.0Q154.7 207.9 153.5 209.4Q152.4 210.8 150.4 211.7Q148.5 212.5 145.9 212.5L145.9 212.5Q142.0 212.5 139.7 210.8Q137.4 209.2 137.0 206.4L137.0 206.4L142.4 206.1Q142.6 207.3 143.5 207.9Q144.5 208.5 145.9 208.5L145.9 208.5Q147.4 208.5 148.2 208.0Q149.1 207.4 149.1 206.5L149.1 206.5Q149.1 205.8 148.5 205.3Q147.9 204.8 146.6 204.6L146.6 204.6L143.2 203.9Q140.3 203.3 138.9 201.9Q137.5 200.5 137.5 198.3L137.5 198.3Q137.5 196.4 138.6 195.0Q139.6 193.7 141.5 192.9Q143.3 192.2 145.8 192.2L145.8 192.2Q149.6 192.2 151.7 193.8Q153.9 195.3 154.2 198.0ZM164.7 212.1L164.7 185.9L171.6 185.9L178.8 203.5L179.1 203.5L186.3 185.9L193.1 185.9L193.1 212.1L187.8 212.1L187.8 195.0L187.5 195.0L180.8 212.0L177.1 212.0L170.3 195.0L170.1 195.0L170.1 212.1L164.7 212.1ZM202.3 212.5L202.3 212.5Q200.4 212.5 198.9 211.8Q197.5 211.1 196.6 209.8Q195.8 208.5 195.8 206.6L195.8 206.6Q195.8 205.0 196.4 203.8Q197.0 202.7 198.0 202.1Q199.0 201.4 200.4 201.0Q201.7 200.7 203.1 200.6L203.1 200.6Q204.8 200.4 205.9 200.2Q206.9 200.1 207.4 199.7Q207.9 199.4 207.9 198.8L207.9 198.8L207.9 198.7Q207.9 197.5 207.1 196.8Q206.4 196.2 205.0 196.2L205.0 196.2Q203.5 196.2 202.6 196.8Q201.8 197.5 201.5 198.4L201.5 198.4L196.4 198.0Q196.8 196.2 198.0 194.9Q199.1 193.6 200.9 192.9Q202.6 192.2 205.0 192.2L205.0 192.2Q206.6 192.2 208.1 192.6Q209.6 193.0 210.8 193.8Q212.0 194.6 212.7 195.8Q213.3 197.1 213.3 198.8L213.3 198.8L213.3 212.1L208.2 212.1L208.2 209.4L208.0 209.4Q207.5 210.3 206.8 211.0Q206.0 211.7 204.8 212.1Q203.7 212.5 202.3 212.5ZM203.8 208.7L203.8 208.7Q205.0 208.7 206.0 208.2Q206.9 207.7 207.4 206.9Q207.9 206.1 207.9 205.1L207.9 205.1L207.9 203.0Q207.7 203.1 207.2 203.3Q206.8 203.4 206.2 203.5Q205.7 203.6 205.1 203.7Q204.6 203.8 204.1 203.9L204.1 203.9Q203.2 204.0 202.5 204.3Q201.8 204.6 201.4 205.1Q201.0 205.7 201.0 206.4L201.0 206.4Q201.0 207.5 201.8 208.1Q202.6 208.7 203.8 208.7ZM233.0 198.0L233.0 198.0L228.0 198.4Q227.9 197.7 227.5 197.2Q227.0 196.7 226.4 196.4Q225.7 196.1 224.7 196.1L224.7 196.1Q223.5 196.1 222.6 196.6Q221.7 197.1 221.7 198.0L221.7 198.0Q221.7 198.7 222.3 199.2Q222.9 199.7 224.2 200.0L224.2 200.0L227.8 200.7Q230.6 201.3 232.0 202.6Q233.5 203.9 233.5 206.0L233.5 206.0Q233.5 207.9 232.3 209.4Q231.2 210.8 229.2 211.7Q227.3 212.5 224.7 212.5L224.7 212.5Q220.8 212.5 218.5 210.8Q216.2 209.2 215.8 206.4L215.8 206.4L221.2 206.1Q221.4 207.3 222.3 207.9Q223.3 208.5 224.7 208.5L224.7 208.5Q226.2 208.5 227.0 208.0Q227.9 207.4 227.9 206.5L227.9 206.5Q227.9 205.8 227.3 205.3Q226.7 204.8 225.4 204.6L225.4 204.6L222.0 203.9Q219.1 203.3 217.7 201.9Q216.3 200.5 216.3 198.3L216.3 198.3Q216.3 196.4 217.4 195.0Q218.4 193.7 220.3 192.9Q222.1 192.2 224.6 192.2L224.6 192.2Q228.4 192.2 230.5 193.8Q232.6 195.3 233.0 198.0ZM241.4 200.7L241.4 200.7L241.4 212.1L236.0 212.1L236.0 185.9L241.3 185.9L241.3 195.9L241.5 195.9Q242.2 194.2 243.7 193.2Q245.1 192.2 247.4 192.2L247.4 192.2Q249.4 192.2 251.0 193.1Q252.5 194.0 253.3 195.6Q254.2 197.3 254.2 199.6L254.2 199.6L254.2 212.1L248.7 212.1L248.7 200.6Q248.7 198.7 247.8 197.7Q246.9 196.7 245.2 196.7L245.2 196.7Q244.1 196.7 243.3 197.2Q242.4 197.7 241.9 198.6Q241.4 199.5 241.4 200.7ZM263.2 212.5L263.2 212.5Q261.3 212.5 259.8 211.8Q258.3 211.1 257.5 209.8Q256.6 208.5 256.6 206.6L256.6 206.6Q256.6 205.0 257.2 203.8Q257.8 202.7 258.9 202.1Q259.9 201.4 261.2 201.0Q262.6 200.7 264.0 200.6L264.0 200.6Q265.7 200.4 266.8 200.2Q267.8 200.1 268.3 199.7Q268.8 199.4 268.8 198.8L268.8 198.8L268.8 198.7Q268.8 197.5 268.0 196.8Q267.3 196.2 265.9 196.2L265.9 196.2Q264.4 196.2 263.5 196.8Q262.7 197.5 262.4 198.4L262.4 198.4L257.3 198.0Q257.7 196.2 258.8 194.9Q260.0 193.6 261.8 192.9Q263.5 192.2 265.9 192.2L265.9 192.2Q267.5 192.2 269.0 192.6Q270.5 193.0 271.7 193.8Q272.9 194.6 273.5 195.8Q274.2 197.1 274.2 198.8L274.2 198.8L274.2 212.1L269.1 212.1L269.1 209.4L268.9 209.4Q268.4 210.3 267.6 211.0Q266.8 211.7 265.7 212.1Q264.6 212.5 263.2 212.5ZM264.7 208.7L264.7 208.7Q265.9 208.7 266.8 208.2Q267.8 207.7 268.3 206.9Q268.8 206.1 268.8 205.1L268.8 205.1L268.8 203.0Q268.6 203.1 268.1 203.3Q267.7 203.4 267.1 203.5Q266.6 203.6 266.0 203.7Q265.5 203.8 265.0 203.9L265.0 203.9Q264.1 204.0 263.4 204.3Q262.6 204.6 262.2 205.1Q261.8 205.7 261.8 206.4L261.8 206.4Q261.8 207.5 262.7 208.1Q263.5 208.7 264.7 208.7Z "/></svg>